{"title":"24H chrono saison 2 complète FR","uid":7785610,"size":10286457384,"categoryP":"video","categoryS":"movies","magnet":"?xt=urn:btih:e438101424b20c1c65c2833c14936c8e924b6e15&amp;dn=24H+chrono+saison+2+compl%26egrave%3Bte+FR&amp;tr=udp%3A%2F%2Ftracker.openbittorrent.com%3A80&amp;tr=udp%3A%2F%2Fopen.demonii.com%3A1337&amp;tr=udp%3A%2F%2Ftracker.coppersurfer.tk%3A6969&amp;tr=udp%3A%2F%2Fexodus.desync.com%3A6969","seeders":0,"leechers":1,"uploader":"pollomax847","files":29,"time":1351883800,"description":"uration                                 : 1mn 35s\nBit rate                                 : 1 749 Kbps\nWidth                                    : 720 pixels\nHeight                                   : 404 pixels\nDisplay aspect ratio                     : 16:9\nFrame rate                               : 29.970 fps\nColor space                              : YUV\nChroma subsampling                       : 4:2:0\nBit depth                                : 8 bits\nScan type                                : Progressive\nCompression mode                         : Lossy\nBits/(Pixel*Frame)                       : 0.201\nStream size                              : 19.9 MiB (92%)\nWriting library                          : DigiArty AV Encoder Core\n\nAudio\nID                                       : 1\nFormat                                   : MPEG Audio\nFormat version                           : Version 1\nFormat profile                           : Layer 3\nCodec ID                                 : 55\nCodec ID/Hint                            : MP3\nDuration                                 : 1mn 35s\nBit rate mode                            : Constant\nBit rate                                 : 128 Kbps\nChannel(s)                               : 2 channels\nSampling rate                            : 48.0 KHz\nCompression mode                         : Lossy\nStream size                              : 1.46 MiB (7%)\nAlignment                                : Aligned on interleaves\nInterleave, duration                     : 24 ms (0.72 video frame)\nInterleave, preload duration             : 504 ms\nWriting library                          : LAME3.98.2\n","torrent":{"xt":"urn:btih:e438101424b20c1c65c2833c14936c8e924b6e15","amp;dn":"24H+chrono+saison+2+compl%26egrave%3Bte+FR","amp;tr":["udp%3A%2F%2Ftracker.openbittorrent.com%3A80","udp%3A%2F%2Fopen.demonii.com%3A1337","udp%3A%2F%2Ftracker.coppersurfer.tk%3A6969","udp%3A%2F%2Fexodus.desync.com%3A6969"],"infoHash":"e438101424b20c1c65c2833c14936c8e924b6e15","infoHashBuffer":{"type":"Buffer","data":[228,56,16,20,36,178,12,28,101,194,131,60,20,147,108,142,146,75,110,21]},"announce":[],"urlList":[]}}